<?xml version="1.0" encoding="utf-8"?>
<svg xmlns="http://www.w3.org/2000/svg" xmlns:xlink="http://www.w3.org/1999/xlink" style="margin: auto; background: none; display: block; shape-rendering: auto;" width="210px" height="210px" viewBox="0 0 100 100" preserveAspectRatio="xMidYMid">
<g transform="translate(50 50)">
<g>
<animateTransform attributeName="transform" type="rotate" values="0;45" keyTimes="0;1" dur="0.27548209366391185s" repeatCount="indefinite"></animateTransform><path d="M29.58039891549808 -5 L40.58039891549808 -5 L40.58039891549808 5 L29.58039891549808 5 A30 30 0 0 1 24.452034569284628 17.380966757419152 L24.452034569284628 17.380966757419152 L32.23020916233665 25.159141350471174 L25.159141350471174 32.23020916233665 L17.380966757419152 24.452034569284628 A30 30 0 0 1 5.000000000000001 29.58039891549808 L5.000000000000001 29.58039891549808 L5.000000000000002 40.58039891549808 L-4.9999999999999964 40.58039891549808 L-4.999999999999997 29.58039891549808 A30 30 0 0 1 -17.38096675741915 24.452034569284628 L-17.38096675741915 24.452034569284628 L-25.15914135047117 32.23020916233665 L-32.23020916233665 25.159141350471174 L-24.452034569284624 17.380966757419152 A30 30 0 0 1 -29.58039891549808 5.000000000000002 L-29.58039891549808 5.000000000000002 L-40.58039891549808 5.000000000000003 L-40.58039891549808 -4.999999999999995 L-29.58039891549808 -4.999999999999996 A30 30 0 0 1 -24.45203456928463 -17.38096675741915 L-24.45203456928463 -17.38096675741915 L-32.23020916233665 -25.15914135047117 L-25.159141350471167 -32.23020916233665 L-17.380966757419145 -24.45203456928463 A30 30 0 0 1 -5.000000000000017 -29.580398915498076 L-5.000000000000017 -29.580398915498076 L-5.000000000000019 -40.58039891549808 L5.000000000000004 -40.58039891549808 L5.000000000000006 -29.58039891549808 A30 30 0 0 1 17.380966757419138 -24.452034569284635 L17.380966757419138 -24.452034569284635 L25.15914135047116 -32.23020916233666 L32.23020916233665 -25.15914135047117 L24.45203456928463 -17.380966757419145 A30 30 0 0 1 29.580398915498076 -5.0000000000000195 M0 -19A19 19 0 1 0 0 19 A19 19 0 1 0 0 -19" fill="#d8a918"></path></g></g>
<!-- [ldio] generated by https://loading.io/ --></svg>